# xmcd CD database file
#
# Track frame offsets:
#	150
#	2862
#	14812
#	24075
#	31552
#	38887
#	47327
#	49880
#	52625
#	62137
#	71555
#	80137
#	87537
#	98840
#	101385
#	104102
#	114710
#	130392
#	142132
#	152007
#	154580
#	157252
#	169315
#	181952
#	192580
#	202440
#	204995
#	207680
#	218107
#	235300
#	246877
#
# Disc length: 3322 seconds
#
# Revision: 0
# Processed by: cddbd v1.5.2PL0 Copyright (c) Steve Scherf et al.
# Submitted via: CDex 1.51
#
DISCID=ca0cf81f
DTITLE=Jim Reeves - Jim Reeves and Friends: Radio Days, vol.1
DYEAR=1998
DGENRE=Country
TTITLE0=Beaumont Rag - Intro
TTITLE1=Billy Bayou
TTITLE2=I´d like to be
TTITLE3=The Blue Boys: Midnight in old Amarillo
TTITLE4=Have I told you lately that I love you
TTITLE5=Blue Boy
TTITLE6=Beaumont Rag - Outro
TTITLE7=Beaumont Rag - Intro
TTITLE8=I get the blues when it rains
TTITLE9=Theme of love
TTITLE10=Blue boy
TTITLE11=The Blue Boys: Bud´s bounce
TTITLE12=Am I losing you ?
TTITLE13=Beaumont Rag - Outro
TTITLE14=Beaumont Rag - Intro
TTITLE15=Billy Bayou
TTITLE16=Am I losing you ?
TTITLE17=The Louvin Brothers: Blue from now on
TTITLE18=Blue boy
TTITLE19=Beaumont Rag - Outro
TTITLE20=Beaumont Rag - Intro
TTITLE21=Bimbo
TTITLE22=Anna Marie
TTITLE23=Donna Darlene: Yes, there´s a reason
TTITLE24=I´d like to be
TTITLE25=Beaumont Rag - Outro
TTITLE26=Beaumont Rag - Intro
TTITLE27=´Til the end of the world
TTITLE28=Making believe
TTITLE29=Just call me lonesome
TTITLE30=Beaumont Rag - Outro
EXTD=YEAR: 1998
EXTT0=
EXTT1=
EXTT2=
EXTT3=
EXTT4=
EXTT5=
EXTT6=
EXTT7=
EXTT8=
EXTT9=
EXTT10=
EXTT11=
EXTT12=
EXTT13=
EXTT14=
EXTT15=
EXTT16=
EXTT17=
EXTT18=
EXTT19=
EXTT20=
EXTT21=
EXTT22=
EXTT23=
EXTT24=
EXTT25=
EXTT26=
EXTT27=
EXTT28=
EXTT29=
EXTT30=
PLAYORDER=
